<svg id="Icons" height="512" viewBox="0 0 60 60" width="512" xmlns="http://www.w3.org/2000/svg"><path d="m27.434 49.475c-.172 0-.341-.09-.433-.25-.139-.239-.057-.545.183-.683l31.536-18.207c.236-.139.538-.06.679.176.141.233.067.537-.164.682l-3.898 2.428 3.384-1.953c.235-.137.534-.06.676.171s.074.533-.153.681l-10.29 6.702 9.768-5.64c.237-.137.536-.059.677.173.142.232.071.534-.157.681l-4.839 3.095 4.319-2.493c.235-.137.533-.06.676.17.142.23.075.531-.15.681l-6.306 4.152 5.78-3.337c.235-.137.536-.061.677.172.142.231.072.533-.155.681l-1.408.909.887-.512c.229-.135.525-.062.669.16.146.223.09.521-.125.677l-6.887 5.012 6.343-3.662c.229-.134.524-.062.669.159.145.223.091.52-.123.677l-4.105 3.015 3.56-2.055c.221-.129.507-.068.657.143.149.209.115.498-.079.667l-3.679 3.2 2.842-1.641c.217-.128.499-.071.651.135.151.203.126.488-.059.662l-1.615 1.519c.13.03.247.112.318.236.139.239.057.545-.183.683l-2.936 1.695c-.217.129-.499.07-.651-.135-.151-.203-.126-.488.059-.662l1.183-1.112-3.601 2.079c-.219.13-.506.07-.657-.143-.149-.209-.115-.498.079-.667l3.68-3.201-6.947 4.011c-.228.134-.523.064-.669-.159-.145-.223-.091-.52.123-.677l4.105-3.015-6.672 3.852c-.229.134-.525.062-.669-.16-.146-.223-.09-.521.125-.677l6.886-5.011-10.13 5.849c-.235.137-.535.061-.677-.172-.142-.231-.072-.533.155-.681l1.423-.919-3.068 1.771c-.235.137-.533.06-.676-.17-.142-.23-.075-.531.15-.681l6.303-4.15-8.664 5.002c-.236.138-.535.06-.677-.173s-.071-.534.157-.681l4.833-3.092-6.833 3.945c-.235.137-.535.061-.676-.171-.142-.231-.074-.533.153-.681l10.293-6.703-13.088 7.556c-.238.137-.539.058-.679-.176-.141-.233-.067-.537.164-.682l3.903-2.431-5.696 3.288c-.079.046-.165.067-.25.067z" fill="#e23750"/><path d="m13.627 57.451c-.17 0-.337-.088-.43-.244-.14-.235-.064-.54.169-.683l11.516-7.042-12.415 7.168c-.238.138-.54.059-.68-.177s-.064-.539.168-.683l14.271-8.745-14.296 8.253c-.239.138-.54.058-.681-.178-.14-.236-.062-.541.172-.683l6.176-3.739-5.811 3.354c-.239.138-.542.058-.681-.179-.14-.236-.062-.541.173-.683l.312-.188c-.223.085-.481.002-.608-.209-.141-.234-.067-.537.164-.682l23.498-14.694-23.229 13.411c-.238.137-.54.058-.679-.176-.141-.234-.066-.538.165-.682l20.743-12.861-21.287 12.29c-.238.138-.54.059-.68-.177-.14-.234-.065-.539.168-.682l18.016-11.076-20.668 11.933c-.238.137-.54.059-.68-.177s-.064-.54.169-.683l18.333-11.213-20.095 11.602c-.238.137-.542.058-.681-.179-.14-.236-.062-.541.173-.683l8.721-5.256-9.406 5.431c-.239.137-.542.059-.681-.18-.14-.236-.062-.541.174-.682l1.181-.707-1.482.855c-.238.138-.54.059-.68-.177s-.065-.539.168-.682l25.248-15.516-25.77 14.884c-.238.138-.541.057-.68-.178-.14-.235-.064-.54.17-.682l20.161-12.267-20.149 11.634c-.239.138-.542.058-.681-.179-.14-.236-.062-.541.173-.683l11.029-6.64-10.628 6.136c-.238.137-.54.058-.681-.178-.14-.236-.062-.541.172-.683l15.828-9.573-15.319 8.845c-.238.138-.54.059-.68-.177-.14-.234-.065-.538.168-.682l26.651-16.396-26.139 15.091c-.238.137-.54.059-.68-.177s-.065-.539.168-.682l24.297-14.913-23.785 13.733c-.238.138-.541.058-.68-.178-.14-.235-.064-.54.17-.682l17.356-10.558-16.846 9.726c-.238.138-.54.059-.679-.176-.141-.234-.066-.538.166-.682l24.088-14.9-23.575 13.611c-.238.138-.542.058-.681-.179-.14-.236-.062-.541.173-.683l.435-.261c-.222.083-.479 0-.605-.21-.141-.234-.067-.537.164-.682l21.861-13.654-21.347 12.325c-.238.137-.54.059-.68-.177-.14-.234-.065-.538.167-.682l14.194-8.758-13.681 7.9c-.235.138-.536.061-.678-.174-.141-.233-.069-.536.161-.682l17.894-11.278-17.377 10.033c-.235.139-.536.06-.678-.174-.141-.233-.069-.536.161-.682l14.873-9.388-14.356 8.289c-.235.138-.536.06-.678-.173-.141-.232-.07-.535.159-.682l13.666-8.71-13.147 7.59c-.235.139-.537.06-.679-.175-.141-.233-.068-.536.163-.682l7.5-4.711-6.984 4.032c-.235.137-.535.06-.676-.171-.143-.231-.074-.533.153-.681l11.122-7.239-10.599 6.12c-.235.139-.535.06-.677-.173-.142-.231-.071-.534.157-.681l5.941-3.807-5.422 3.13c-.235.135-.531.06-.674-.168-.143-.229-.079-.528.145-.68l8.779-5.918-8.249 4.764c-.232.136-.53.062-.674-.167-.143-.228-.08-.527.143-.679l6.387-4.348-5.855 3.381c-.229.134-.524.062-.67-.161-.145-.224-.089-.521.128-.677l6.048-4.361-5.506 3.178c-.232.136-.53.062-.674-.167-.143-.228-.08-.527.143-.679l.715-.486-.184.105c-.227.132-.516.065-.664-.152-.147-.217-.102-.511.104-.673l3.269-2.571-2.624 1.515c-.213.125-.486.074-.641-.121-.154-.193-.145-.471.024-.652l2.231-2.4-.055.031c-.239.138-.546.056-.683-.183-.139-.239-.057-.545.183-.683l2.937-1.695c.212-.125.485-.073.641.121.154.193.145.471-.024.652l-2.231 2.4 5.79-3.343c.225-.133.517-.066.664.152.147.217.102.511-.104.673l-3.269 2.571 5.884-3.396c.234-.135.531-.062.674.167.143.228.08.527-.143.679l-.717.488 2.311-1.334c.229-.135.524-.063.67.161.145.224.089.521-.128.677l-6.045 4.359 9.003-5.197c.234-.135.531-.062.674.167.143.228.08.527-.143.679l-6.392 4.351 9.001-5.196c.233-.136.53-.061.674.168.143.229.079.528-.145.68l-8.781 5.919 11.722-6.767c.237-.136.536-.059.677.173.142.231.071.534-.157.681l-5.934 3.802 8.063-4.655c.235-.138.535-.06.676.171.142.231.074.533-.153.681l-11.122 7.239 14.014-8.092c.238-.136.538-.06.679.175.141.233.068.536-.163.682l-7.502 4.712 9.646-5.568c.237-.136.537-.059.678.173s.07.535-.159.682l-13.665 8.71 16.565-9.566c.236-.136.537-.059.678.174s.069.536-.161.682l-14.876 9.39 17.746-10.246c.236-.136.537-.059.678.174s.069.536-.161.682l-17.886 11.273 21.007-12.129c.236-.138.538-.06.68.177.14.234.065.538-.167.682l-14.214 8.77 16.677-9.629c.236-.138.538-.059.679.175s.067.537-.164.682l-21.849 13.646 25.119-14.503c.236-.139.541-.058.681.179s.062.541-.173.683l-.136.081 1.623-.937c.236-.138.539-.059.679.176.141.234.066.538-.166.682l-24.084 14.898 26.162-15.105c.237-.139.54-.058.68.178s.064.54-.17.682l-17.354 10.557 18.168-10.489c.236-.139.538-.06.68.177.14.235.065.539-.168.682l-24.309 14.92 24.918-14.386c.236-.138.538-.06.68.177.14.234.065.538-.168.682l-26.647 16.395 26.82-15.484c.238-.139.54-.058.681.178.14.236.062.541-.172.683l-15.829 9.574 15.447-8.918c.237-.139.542-.059.681.179.14.236.062.541-.173.683l-11.031 6.641 10.523-6.075c.237-.14.54-.058.68.178s.064.54-.17.682l-20.152 12.261 19.643-11.34c.236-.138.538-.06.68.177.14.235.065.539-.168.682l-25.257 15.521 24.745-14.286c.237-.139.542-.059.681.18.14.236.062.541-.174.682l-1.134.679.627-.361c.237-.14.542-.059.681.179.14.236.062.541-.173.683l-8.735 5.265 8.228-4.75c.236-.139.538-.06.68.177.14.235.064.54-.169.683l-18.323 11.207 17.812-10.284c.236-.138.538-.06.68.177.14.234.065.539-.168.682l-18.038 11.09 17.526-10.118c.236-.139.539-.06.679.176.141.234.066.538-.165.682l-20.74 12.859 20.227-11.678c.236-.139.538-.059.679.175s.067.537-.164.682l-23.493 14.691 22.979-13.267c.237-.139.542-.059.681.179.14.236.062.541-.173.683l-.424.255c.217-.081.472.008.597.217.14.236.062.541-.172.683l-6.18 3.741 5.671-3.273c.236-.138.538-.06.68.177.14.235.064.539-.168.683l-14.26 8.738 13.748-7.937c.236-.138.54-.06.68.177.14.235.064.54-.169.683l-36.281 22.186c.007.18-.083.357-.25.453l-8.822 5.094c-.079.046-.165.067-.25.067z" fill="#e23750"/><g fill="#fff"><path d="m39.778 41.449c-.153 0-.305-.071-.402-.203-.151-.205-.124-.49.062-.663l1.933-1.795-2.72 1.569c-.227.133-.519.064-.665-.154s-.099-.513.109-.674l.365-.282-.585.337c-.227.134-.52.065-.665-.154-.146-.218-.099-.513.109-.674l.368-.284-.589.339c-.217.127-.499.07-.649-.133-.152-.202-.129-.485.054-.661l2.659-2.55-3.432 1.98c-.22.13-.506.069-.656-.142-.15-.209-.116-.498.077-.667l2.048-1.791-2.582 1.49c-.217.13-.501.069-.652-.136s-.124-.491.062-.664l2.462-2.275-3.14 1.812c-.219.13-.503.07-.655-.14-.15-.207-.119-.494.071-.665l2.247-2.012-2.843 1.641c-.225.132-.514.066-.662-.149-.147-.214-.105-.507.097-.671l1.252-1.02-1.604.926c-.226.132-.517.065-.664-.152-.146-.217-.102-.51.104-.673l.787-.622-1.064.614c-.24.138-.546.057-.683-.183-.139-.239-.057-.545.183-.683l7.024-4.057c.225-.133.516-.065.664.151.146.218.102.511-.104.674l-.795.628 1.07-.617c.224-.132.514-.066.662.149.147.214.105.507-.097.671l-1.25 1.018 1.599-.923c.221-.129.504-.069.655.14.15.207.119.494-.071.665l-2.247 2.012 2.839-1.639c.219-.127.502-.069.652.136.151.205.124.491-.062.664l-2.464 2.277 3.139-1.812c.221-.13.507-.068.656.142.15.209.116.498-.077.667l-2.047 1.79 2.578-1.488c.217-.129.498-.07.649.133.152.202.129.485-.054.661l-2.66 2.551 3.429-1.979c.227-.133.519-.065.665.154.146.218.099.513-.109.674l-.362.28.574-.331c.227-.134.519-.064.665.154s.099.513-.109.674l-.367.284.145-.083c.218-.128.5-.07.652.136.151.204.124.49-.062.663l-3.284 3.051c.019.022.036.047.051.073.139.239.057.545-.183.683l-1.852 1.068c-.078.046-.165.067-.25.067z"/><path d="m33.232 17.747c-.155 0-.308-.072-.404-.206-.15-.207-.12-.494.069-.665l5.166-4.651c-.133-.238-.051-.54.187-.677l1.624-.938c.22-.129.505-.068.654.139.15.207.12.494-.069.665l-3.356 3.022 4.454-2.571c.238-.14.545-.058.683.183.139.239.057.545-.183.683l-8.574 4.95c-.078.046-.164.067-.25.067z"/><path d="m18.945 40.955c-.163 0-.322-.08-.418-.225-.146-.222-.094-.518.119-.676l1.568-1.171-1.918 1.106c-.232.135-.528.062-.672-.164s-.084-.524.135-.678l8.857-6.2-9.739 5.623c-.234.135-.534.061-.675-.169-.143-.229-.077-.531.148-.681l6.807-4.517-7.384 4.263c-.236.137-.534.06-.676-.171s-.074-.531.151-.68l11.17-7.317-10.774 6.221c-.236.138-.536.06-.678-.174-.141-.233-.069-.536.16-.682l8.347-5.274-4.071 2.351c-.238.137-.539.058-.679-.175-.141-.234-.067-.537.164-.682l3.072-1.919c-.16-.007-.313-.091-.403-.237-.143-.229-.076-.53.149-.68l7.95-5.26-5.428 3.134c-.235.137-.534.061-.676-.171-.143-.231-.074-.533.153-.681l3-1.951-3.349 1.933c-.218.13-.503.069-.655-.14-.15-.207-.119-.495.072-.666l2.238-2-2.829 1.633c-.219.13-.504.07-.654-.139-.15-.207-.12-.494.069-.666l2.288-2.059-2.896 1.672c-.219.13-.503.07-.655-.14-.15-.208-.119-.495.072-.666l2.221-1.981-2.807 1.62c-.22.13-.504.068-.656-.141-.149-.209-.117-.497.075-.667l2.119-1.867-2.672 1.542c-.22.131-.507.067-.657-.143-.149-.21-.115-.499.079-.668l1.987-1.726-2.502 1.444c-.224.131-.511.066-.66-.146-.148-.213-.109-.504.09-.67l1.57-1.311-1.983 1.145c-.224.132-.516.066-.662-.149-.147-.216-.105-.509.099-.673l1.104-.891-1.43.825c-.227.133-.519.063-.664-.152-.147-.218-.101-.512.105-.674l.637-.499-.519.299c-.217.127-.497.071-.649-.132-.152-.201-.13-.485.052-.66l3.433-3.315c-.016-.02-.029-.04-.042-.062-.139-.239-.057-.545.183-.683l1.625-.938c.216-.127.496-.071.649.132.152.201.13.485-.052.66l-2.172 2.098 3.104-1.792c.227-.133.518-.063.664.152.147.218.101.512-.105.674l-.638.5.894-.516c.224-.133.516-.066.662.149.147.216.105.509-.099.673l-1.104.89 1.432-.826c.224-.132.512-.066.66.146s.109.504-.09.67l-1.569 1.31 1.985-1.146c.221-.128.508-.067.657.143s.115.499-.079.668l-1.988 1.727 2.507-1.447c.221-.128.506-.068.656.141.149.209.117.497-.075.667l-2.119 1.867 2.675-1.544c.22-.128.505-.069.655.14.15.208.119.495-.072.666l-2.22 1.98 2.809-1.621c.22-.128.505-.068.654.139.15.207.12.494-.069.666l-2.288 2.059 2.899-1.674c.22-.128.505-.069.655.14.15.207.119.495-.072.666l-2.24 2.002 15.476-8.934c.235-.137.534-.061.676.171.143.231.074.533-.153.681l-2.987 1.943 3.334-1.925c.234-.137.532-.062.675.17.143.229.076.53-.149.68l-7.959 5.266 8.558-4.94c.236-.139.538-.059.679.175s.067.537-.164.682l-1.157.724.763-.44c.237-.137.538-.059.678.174.141.233.069.536-.16.682l-8.333 5.266 4.469-2.58c.234-.136.532-.06.676.171.142.23.074.531-.151.68l-11.184 7.326 5.928-3.422c.233-.137.533-.062.675.169.143.229.077.531-.148.681l-6.801 4.512 5.77-3.33c.232-.135.528-.062.672.164s.084.524-.135.678l-9.32 6.523c.171-.019.354.067.456.224.146.222.094.518-.119.676l-3.384 2.526c.067.042.125.101.167.174.139.239.057.545-.183.683l-5.016 2.896c-.078.046-.165.067-.25.067z"/></g><path d="m59.724 22.223c-.357-7.536 2.94-21.342-9.062-19.516-14.282.02-28.566-.05-42.849 0-2.202.01-4.407.665-5.927 2.34-1.349 1.486-1.611 3.247-1.611 5.145v30.08c-1.091 6.785 3.813 9.952 10.061 8.991-.665 15.638 9.91 3.553 16.737.033 30.559-1.38 34.294 8.685 32.651-27.073zm-1.449 20.95c0 3.757-3.311 6.169-6.924 5.533-7.967.008-15.939-.01-23.903 0-4.141 1.626-7.674 4.837-11.578 7.04-4.78 3.515-3.221-5.051-4.4-7.04-9.939 1.683-10.311-5.782-9.746-13.455.001-8.813-.004-17.626 0-26.439.039-6.076 6.434-5.796 10.901-5.518h36.702c4.052-.555 9.013 1.038 8.948 5.901-.066 11.324.128 22.655 0 33.978z" fill="#262626"/><path d="m37.897 27.387c-.456-.494-.999-1.187-1.562-1.544 2.817-2.682 5.503-5.553 8.299-8.279 2.418-1.884-.35-3.735-1.77-5.192-3.978-5.472-9.243 5.131-12.707 7.274-3.539-2.171-8.432-12.493-12.613-7.377-1.274 1.446-4.727 3.373-2.414 5.364 2.907 2.746 5.514 5.905 8.533 8.507-3 3.094-6.205 6.041-9.127 9.177-.798 1.257.461 2.173 1.256 2.969 3.444 4.738 5.723 3.082 8.875-.756 1.728-1.728 3.456-3.456 5.185-5.184 3.719 2.351 8.617 12.953 12.913 7.077 1.079-1.079 3.883-2.917 2.522-4.636-2.464-2.466-4.927-4.933-7.391-7.399zm5.123 10.511c-1.94 1.768-2.665 3.962-4.808.936-2.228-1.386-6.602-8.582-8.87-7.249-3.048 2.932-5.98 6.155-9.023 9.024-6.343-5.052-5.591-4.277-.356-9.5 4.896-5.199 7.021-4.298.807-9.719-3.294-3.632-7.722-4.787-2.053-9.025.994-1.601 1.632-.808 2.566.296 2.383 1.494 6.964 8.994 9.383 7.745 3.044-2.929 5.973-6.149 9.013-9.014 6.332 5.045 5.599 4.274.36 9.496-1.604 1.812-3.873 3.471-5.152 5.368 1.586 2.726 12.31 9.185 8.132 11.642z" fill="#262626"/></svg>