<?xml version="1.0" encoding="UTF-8"?>
<svg xmlns="http://www.w3.org/2000/svg" id="Line_Expand" data-name="Line Expand" viewBox="0 0 64 64" width="512" height="512"><path d="M32,.25A31.75,31.75,0,1,0,63.75,32,31.786,31.786,0,0,0,32,.25Zm0,60A28.25,28.25,0,1,1,60.25,32,28.282,28.282,0,0,1,32,60.25Z"/><path d="M43.67,34.125a5.751,5.751,0,0,0-4.98-2.875H33.75v-4.5h6.47a5.25,5.25,0,0,0,0-10.5H33.6a6.194,6.194,0,0,0,.646-2.75,6.25,6.25,0,1,0-11.088,3.951A6.739,6.739,0,0,0,20.25,23v.3a15.74,15.74,0,1,0,19.2,24.5l1.338,2.318a5.25,5.25,0,0,0,9.094-5.25ZM28,10.75a2.75,2.75,0,1,1-2.75,2.75A2.752,2.752,0,0,1,28,10.75Zm0,38.5a12.228,12.228,0,0,1-7.75-21.7V35A7.75,7.75,0,0,0,28,42.75h8.525l1.06,1.836A12.2,12.2,0,0,1,28,49.25Zm17.331,0a1.749,1.749,0,0,1-1.516-.875l-4.763-8.25a1.751,1.751,0,0,0-1.516-.875H28A4.25,4.25,0,0,1,23.75,35V23A3.252,3.252,0,0,1,27,19.75H40.22a1.75,1.75,0,0,1,0,3.5H32A1.751,1.751,0,0,0,30.25,25v8A1.751,1.751,0,0,0,32,34.75h6.69a2.251,2.251,0,0,1,1.949,1.125l6.207,10.75A1.75,1.75,0,0,1,45.331,49.25Z"/></svg>
